M48
;Layer_Color=9474304
;FILE_FORMAT=4:4
METRIC,LZ
;TYPE=PLATED
T1F00S00C0.3000
T2F00S00C1.5000
%
T01
X00085Y0033
Y00345
Y0036
Y00375
Y00385
Y00395
X001
Y00385
Y0036
X0011
Y00345
X001
Y0033
X0011
X00129Y00336
Y00312
Y00288
X001435Y002725
X00129Y00239
X00135Y00215
Y002
Y0019
Y00169
Y001309
X0012Y0012
X0011
X00095
Y00105
X0011
X0012
Y0009
X0011
X00095
Y00135
Y00145
Y00155
X00192Y00131
X00202Y0018
X00227Y00163
X00251Y00163
X00274Y00163
X00278Y00224
X00259Y00237
X00239
Y00262
X00259Y00261
Y0029
X0025025Y0029075
X00232Y00288
X00228617Y00300868
X00199Y00305
X00211Y00266
X00213388Y00253
X00215325Y00233
X00189Y00237
X00181
X00229Y00204
X00247Y00209
X00311Y002
X003375Y001995
X00343Y00222
X003365Y00247
X00342Y0027
X0033Y003
X00324Y00318
X00315
X00302Y00312
X00265Y00315
X002495Y003185
X00292Y00351
X00285Y00385
X00286Y00408
X00185Y00372
X00127Y003719
X0012684Y0041
X0013Y0044
X0013123Y0045205
X00145Y00435
X00282Y00271
X0031Y00258
X00299Y00235
X00365Y00205
Y0019
X00385Y0018
X00405Y0019
Y00205
X00385Y00215
X00373Y0016
X00385Y00285
X00365Y00295
Y0031
X00385Y0032
X00387Y00338
X00405Y0031
Y00295
T02
X0005Y002
Y003
X0045
Y0036
Y002
Y0014
M30
