G04*
G04 #@! TF.GenerationSoftware,Altium Limited,Altium Designer,19.1.7 (138)*
G04*
G04 Layer_Color=128*
%FSLAX44Y44*%
%MOMM*%
G71*
G01*
G75*
%ADD31R,3.3000X3.3000*%
%ADD32R,0.2300X0.6000*%
%ADD33R,0.6000X0.2300*%
%ADD34R,1.3000X0.7000*%
%ADD35R,0.9000X1.3000*%
%ADD36R,0.9000X1.6000*%
%ADD37R,0.7000X1.3000*%
D31*
X250000Y250000D02*
D03*
D32*
X267500Y274000D02*
D03*
X262500D02*
D03*
X257500D02*
D03*
X252500D02*
D03*
X247500D02*
D03*
X242500D02*
D03*
X237500D02*
D03*
X232500D02*
D03*
Y226000D02*
D03*
X237500D02*
D03*
X242500D02*
D03*
X247500D02*
D03*
X252500D02*
D03*
X257500D02*
D03*
X262500D02*
D03*
X267500D02*
D03*
D33*
X226000Y267500D02*
D03*
Y262500D02*
D03*
Y257500D02*
D03*
Y252500D02*
D03*
Y247500D02*
D03*
Y242500D02*
D03*
Y237500D02*
D03*
Y232500D02*
D03*
X274000D02*
D03*
Y237500D02*
D03*
Y242500D02*
D03*
Y247500D02*
D03*
Y252500D02*
D03*
Y257500D02*
D03*
Y262500D02*
D03*
Y267500D02*
D03*
D34*
X227000Y176500D02*
D03*
Y195500D02*
D03*
X251000Y176500D02*
D03*
Y195500D02*
D03*
X274000Y195500D02*
D03*
Y176500D02*
D03*
X301000Y180500D02*
D03*
Y199500D02*
D03*
X324000Y199500D02*
D03*
Y180500D02*
D03*
X263000Y299500D02*
D03*
Y318500D02*
D03*
D35*
X320500Y298000D02*
D03*
X301500D02*
D03*
X323000Y247000D02*
D03*
X304000D02*
D03*
X328500Y270000D02*
D03*
X309500D02*
D03*
X319500Y328000D02*
D03*
X300500D02*
D03*
X183000Y198000D02*
D03*
X202000D02*
D03*
X202500Y244000D02*
D03*
X183500D02*
D03*
X199500Y293000D02*
D03*
X180500D02*
D03*
D36*
X329500Y222000D02*
D03*
X298500D02*
D03*
D37*
X300500Y352000D02*
D03*
X319500D02*
D03*
X272500Y339000D02*
D03*
X253500D02*
D03*
X253500Y362000D02*
D03*
X272500D02*
D03*
X272500Y385000D02*
D03*
X253500D02*
D03*
X253500Y408000D02*
D03*
X272500D02*
D03*
X184500Y221000D02*
D03*
X203500D02*
D03*
X202500Y269000D02*
D03*
X183500D02*
D03*
X161500Y239000D02*
D03*
X142500D02*
D03*
X142500Y262000D02*
D03*
X161500D02*
D03*
X161500Y288000D02*
D03*
X142500D02*
D03*
Y312000D02*
D03*
X161500D02*
D03*
X142500Y336000D02*
D03*
X161500D02*
D03*
M02*
