G04*
G04 #@! TF.GenerationSoftware,Altium Limited,Altium Designer,19.1.7 (138)*
G04*
G04 Layer_Physical_Order=3*
G04 Layer_Color=36540*
%FSLAX44Y44*%
%MOMM*%
G71*
G01*
G75*
%ADD10C,0.2000*%
%ADD23C,0.5000*%
%ADD25C,0.6000*%
%ADD30C,1.0000*%
D10*
X247000Y209000D02*
X309828D01*
X312000Y211172D01*
X280515Y252000D02*
X306828D01*
X231647Y300868D02*
X280515Y252000D01*
X228617Y300868D02*
X231647D01*
X306828Y252000D02*
X312000Y246828D01*
Y211172D02*
Y246828D01*
D23*
X141000Y319000D02*
Y360828D01*
X192000Y131000D02*
Y170000D01*
X202000Y180000D01*
D25*
X373000Y160000D02*
D03*
X387000Y338000D02*
D03*
X229000Y204000D02*
D03*
X215325Y233000D02*
D03*
X259000Y290000D02*
D03*
X211000Y266000D02*
D03*
X311000Y200000D02*
D03*
X185000Y372000D02*
D03*
X192000Y131000D02*
D03*
X135000Y130900D02*
D03*
Y169000D02*
D03*
X127000Y371900D02*
D03*
X126840Y410000D02*
D03*
X199000Y305000D02*
D03*
X232000Y288000D02*
D03*
X228617Y300868D02*
D03*
X129000Y239000D02*
D03*
X299000Y235000D02*
D03*
X247000Y209000D02*
D03*
X202000Y180000D02*
D03*
D30*
X255142Y219000D02*
X270142Y234000D01*
X242858Y219000D02*
X255142D01*
X135000Y130900D02*
Y142000D01*
X105000Y172000D02*
X135000Y142000D01*
X105000Y172000D02*
Y241000D01*
X118000Y254000D01*
X188000D01*
X209000Y233000D01*
X270142Y234000D02*
X298000D01*
X129000Y239000D02*
X151000Y217000D01*
X209000Y233000D02*
X215325D01*
X378858Y338000D02*
X387000D01*
X340000Y299142D02*
X378858Y338000D01*
X340000Y295858D02*
Y299142D01*
X262000Y290000D02*
X334142D01*
X340000Y295858D01*
X362858Y160000D02*
X373000D01*
X322858Y200000D02*
X362858Y160000D01*
X311000Y200000D02*
X322858D01*
X191858Y184000D02*
X211858Y204000D01*
X150000Y184000D02*
X191858D01*
X211858Y204000D02*
X229000D01*
X188000Y272000D02*
X205000D01*
X141000Y319000D02*
X188000Y272000D01*
X127828Y360828D02*
X141000D01*
X127000Y360000D02*
X127828Y360828D01*
X135000Y169000D02*
X150000Y184000D01*
X151000Y217000D02*
X240858D01*
X242858Y219000D01*
X298000Y234000D02*
X299000Y235000D01*
X205000Y272000D02*
X211000Y266000D01*
X127000Y360000D02*
Y371900D01*
X206814Y288000D02*
X232000D01*
X202814Y292000D02*
X206814Y288000D01*
X193990Y292000D02*
X202814D01*
X173000Y312480D02*
X176657Y308824D01*
X173000Y312480D02*
Y397000D01*
X160000Y410000D02*
X173000Y397000D01*
X185000Y372000D02*
X194000Y363000D01*
Y310000D02*
Y363000D01*
Y310000D02*
X199000Y305000D01*
X176657Y308824D02*
X193990Y292000D01*
X127000Y410000D02*
X160000D01*
M02*
