G04*
G04 #@! TF.GenerationSoftware,Altium Limited,Altium Designer,19.1.7 (138)*
G04*
G04 Layer_Physical_Order=1*
G04 Layer_Color=255*
%FSLAX44Y44*%
%MOMM*%
G71*
G01*
G75*
%ADD10C,0.2000*%
%ADD11C,0.2540*%
%ADD12R,2.1000X0.6000*%
%ADD13R,2.5500X2.7500*%
%ADD14R,0.9000X2.5000*%
%ADD15R,3.8500X5.5000*%
%ADD23C,0.5000*%
%ADD24C,4.0000*%
%ADD25C,0.6000*%
G36*
X150000Y430000D02*
X125000D01*
Y465000D01*
X150000D01*
Y430000D01*
D02*
G37*
G36*
X225000Y480000D02*
X225000Y405000D01*
X155000Y405000D01*
Y470000D01*
X105000D01*
X75000Y410000D01*
Y285000D01*
X124991D01*
X125395Y284395D01*
X127049Y283290D01*
X129000Y282902D01*
X130951Y283290D01*
X132605Y284395D01*
X133009Y285000D01*
X227991Y285000D01*
X228395Y284395D01*
X230049Y283290D01*
X232000Y282902D01*
X233951Y283290D01*
X235605Y284395D01*
X236009Y285000D01*
X258508D01*
X259000Y284902D01*
X259492Y285000D01*
X320000D01*
X320000Y250000D01*
X218808D01*
X218141Y251270D01*
X218486Y253000D01*
X218097Y254951D01*
X216992Y256605D01*
X215338Y257710D01*
X213388Y258098D01*
X211437Y257710D01*
X209783Y256605D01*
X208678Y254951D01*
X208290Y253000D01*
X208634Y251270D01*
X207968Y250000D01*
X175000D01*
Y217000D01*
X189000D01*
Y163039D01*
X164000D01*
X163803Y163000D01*
X160000D01*
Y250000D01*
X20000Y250000D01*
X20000Y485000D01*
X225000D01*
Y480000D01*
D02*
G37*
G36*
X245000Y341000D02*
X184000D01*
X157000Y368000D01*
Y401000D01*
X245000D01*
Y341000D01*
D02*
G37*
G36*
X476000Y332000D02*
X299000D01*
Y399000D01*
X476000D01*
Y332000D01*
D02*
G37*
G36*
X120000Y404000D02*
X120000Y381270D01*
X118730Y380000D01*
X98000D01*
X96000Y378000D01*
Y367000D01*
X98000Y365000D01*
X115000D01*
Y320000D01*
X85000D01*
X80000Y325000D01*
X80000Y402000D01*
X83000Y404000D01*
X120000Y404000D01*
D02*
G37*
G36*
X415000Y280000D02*
X355000D01*
Y325000D01*
X415000D01*
Y280000D01*
D02*
G37*
G36*
X155000Y185000D02*
X130000D01*
Y220000D01*
X155000D01*
Y185000D01*
D02*
G37*
G36*
X415000Y175000D02*
X355000D01*
Y220000D01*
X415000D01*
Y175000D01*
D02*
G37*
G36*
X245000Y98000D02*
X190000D01*
X164000Y124000D01*
Y161000D01*
X222323D01*
X223395Y159395D01*
X225049Y158290D01*
X227000Y157902D01*
X228951Y158290D01*
X230605Y159395D01*
X231677Y161000D01*
X245000D01*
Y98000D01*
D02*
G37*
G36*
X478000Y95000D02*
X301000D01*
Y162000D01*
X478000D01*
Y95000D01*
D02*
G37*
G36*
X131240Y140000D02*
X105000D01*
Y125000D01*
X126240D01*
Y80000D01*
X96240D01*
X91240Y85000D01*
Y160000D01*
X131240D01*
Y140000D01*
D02*
G37*
%LPC*%
G36*
X282000Y276098D02*
X280049Y275710D01*
X278395Y274605D01*
X277290Y272951D01*
X276902Y271000D01*
X277290Y269049D01*
X278395Y267395D01*
X280049Y266290D01*
X282000Y265902D01*
X283951Y266290D01*
X285605Y267395D01*
X286710Y269049D01*
X287098Y271000D01*
X286710Y272951D01*
X285605Y274605D01*
X283951Y275710D01*
X282000Y276098D01*
D02*
G37*
G36*
X211000Y271098D02*
X209049Y270710D01*
X207395Y269605D01*
X206290Y267951D01*
X205902Y266000D01*
X206290Y264049D01*
X207395Y262395D01*
X209049Y261290D01*
X211000Y260902D01*
X212951Y261290D01*
X214605Y262395D01*
X215710Y264049D01*
X216098Y266000D01*
X215710Y267951D01*
X214605Y269605D01*
X212951Y270710D01*
X211000Y271098D01*
D02*
G37*
G36*
X239000Y267098D02*
X237049Y266710D01*
X235395Y265605D01*
X234290Y263951D01*
X233902Y262000D01*
X234290Y260049D01*
X235395Y258395D01*
X237049Y257290D01*
X239000Y256902D01*
X240951Y257290D01*
X242605Y258395D01*
X243710Y260049D01*
X244098Y262000D01*
X243710Y263951D01*
X242605Y265605D01*
X240951Y266710D01*
X239000Y267098D01*
D02*
G37*
G36*
X259000Y266098D02*
X257049Y265710D01*
X255395Y264605D01*
X254290Y262951D01*
X253902Y261000D01*
X254290Y259049D01*
X255395Y257395D01*
X257049Y256290D01*
X259000Y255902D01*
X260951Y256290D01*
X262605Y257395D01*
X263710Y259049D01*
X264098Y261000D01*
X263710Y262951D01*
X262605Y264605D01*
X260951Y265710D01*
X259000Y266098D01*
D02*
G37*
G36*
X222300Y134009D02*
X221129Y133776D01*
X220137Y133113D01*
X219474Y132121D01*
X219241Y130950D01*
X219474Y129780D01*
X220137Y128787D01*
X221087Y127837D01*
X222079Y127174D01*
X223250Y126941D01*
X224421Y127174D01*
X225413Y127837D01*
X226076Y128829D01*
X226309Y130000D01*
X226076Y131171D01*
X225413Y132163D01*
X224463Y133113D01*
X223470Y133776D01*
X222300Y134009D01*
D02*
G37*
%LPD*%
D10*
Y130950D02*
X223250Y130000D01*
X37997Y29997D02*
X35998Y31996D01*
X31999D01*
X30000Y29997D01*
Y27997D01*
X31999Y25998D01*
X35998D01*
X37997Y23999D01*
Y21999D01*
X35998Y20000D01*
X31999D01*
X30000Y21999D01*
X49994Y29997D02*
X47994Y31996D01*
X43995D01*
X41996Y29997D01*
Y21999D01*
X43995Y20000D01*
X47994D01*
X49994Y21999D01*
X53992Y31996D02*
Y20000D01*
Y25998D01*
X61990D01*
Y31996D01*
Y20000D01*
X85982D02*
X83982Y21999D01*
X81983Y20000D01*
X79984D01*
X77984Y21999D01*
Y23999D01*
X79984Y25998D01*
X77984Y27997D01*
Y29997D01*
X79984Y31996D01*
X81983D01*
X83982Y29997D01*
Y27997D01*
X81983Y25998D01*
X83982Y23999D01*
Y21999D01*
X85982Y25998D02*
X83982Y23999D01*
X79984Y25998D02*
X81983D01*
X101977Y20000D02*
Y31996D01*
X107975D01*
X109974Y29997D01*
Y25998D01*
X107975Y23999D01*
X101977D01*
X121970Y29997D02*
X119971Y31996D01*
X115972D01*
X113973Y29997D01*
Y21999D01*
X115972Y20000D01*
X119971D01*
X121970Y21999D01*
X125969Y31996D02*
Y20000D01*
X131967D01*
X133966Y21999D01*
Y23999D01*
X131967Y25998D01*
X125969D01*
X131967D01*
X133966Y27997D01*
Y29997D01*
X131967Y31996D01*
X125969D01*
X157959Y29997D02*
X155959Y31996D01*
X151960D01*
X149961Y29997D01*
Y21999D01*
X151960Y20000D01*
X155959D01*
X157959Y21999D01*
X163957Y20000D02*
X167955D01*
X169955Y21999D01*
Y25998D01*
X167955Y27997D01*
X163957D01*
X161957Y25998D01*
Y21999D01*
X163957Y20000D01*
X173953Y27997D02*
Y21999D01*
X175953Y20000D01*
X181951D01*
Y27997D01*
X185949D02*
Y20000D01*
Y23999D01*
X187949Y25998D01*
X189948Y27997D01*
X191947D01*
X197946Y20000D02*
X203944D01*
X205943Y21999D01*
X203944Y23999D01*
X199945D01*
X197946Y25998D01*
X199945Y27997D01*
X205943D01*
X215940Y20000D02*
X211941D01*
X209942Y21999D01*
Y25998D01*
X211941Y27997D01*
X215940D01*
X217939Y25998D01*
Y23999D01*
X209942D01*
D11*
X39432Y55237D02*
X30000Y40000D01*
X40158Y55237D02*
X30726Y40000D01*
Y55237D02*
X30000Y50883D01*
Y55237D01*
X40158D01*
X30000Y40000D02*
X40158D01*
Y44353D01*
X39432Y40000D01*
X43858Y48707D02*
Y47981D01*
X43133D01*
Y48707D01*
X43858Y49432D01*
X45309Y50158D01*
X48211D01*
X49663Y49432D01*
X50388Y48707D01*
X51114Y47256D01*
Y42177D01*
X51839Y40725D01*
X52565Y40000D01*
X50388Y48707D02*
Y42177D01*
X51114Y40725D01*
X52565Y40000D01*
X53290D01*
X50388Y47256D02*
X49663Y46530D01*
X45309Y45805D01*
X43133Y45079D01*
X42407Y43628D01*
Y42177D01*
X43133Y40725D01*
X45309Y40000D01*
X47486D01*
X48937Y40725D01*
X50388Y42177D01*
X45309Y45805D02*
X43858Y45079D01*
X43133Y43628D01*
Y42177D01*
X43858Y40725D01*
X45309Y40000D01*
X57644Y55237D02*
Y40000D01*
X58369Y55237D02*
Y40000D01*
X65625Y50158D02*
X58369Y42902D01*
X61997Y45805D02*
X66350Y40000D01*
X61272Y45805D02*
X65625Y40000D01*
X55467Y55237D02*
X58369D01*
X63448Y50158D02*
X67802D01*
X55467Y40000D02*
X60546D01*
X63448D02*
X67802D01*
X71284Y48707D02*
Y47981D01*
X70559D01*
Y48707D01*
X71284Y49432D01*
X72735Y50158D01*
X75638D01*
X77089Y49432D01*
X77814Y48707D01*
X78540Y47256D01*
Y42177D01*
X79265Y40725D01*
X79991Y40000D01*
X77814Y48707D02*
Y42177D01*
X78540Y40725D01*
X79991Y40000D01*
X80717D01*
X77814Y47256D02*
X77089Y46530D01*
X72735Y45805D01*
X70559Y45079D01*
X69833Y43628D01*
Y42177D01*
X70559Y40725D01*
X72735Y40000D01*
X74912D01*
X76363Y40725D01*
X77814Y42177D01*
X72735Y45805D02*
X71284Y45079D01*
X70559Y43628D01*
Y42177D01*
X71284Y40725D01*
X72735Y40000D01*
X85070Y50158D02*
Y40000D01*
X85795Y50158D02*
Y40000D01*
Y45805D02*
X86521Y47981D01*
X87972Y49432D01*
X89423Y50158D01*
X91600D01*
X92325Y49432D01*
Y48707D01*
X91600Y47981D01*
X90874Y48707D01*
X91600Y49432D01*
X82893Y50158D02*
X85795D01*
X82893Y40000D02*
X87972D01*
X96824Y55237D02*
X96098Y54511D01*
X96824Y53786D01*
X97549Y54511D01*
X96824Y55237D01*
Y50158D02*
Y40000D01*
X97549Y50158D02*
Y40000D01*
X94647Y50158D02*
X97549D01*
X94647Y40000D02*
X99726D01*
X103934Y48707D02*
Y47981D01*
X103209D01*
Y48707D01*
X103934Y49432D01*
X105386Y50158D01*
X108288D01*
X109739Y49432D01*
X110464Y48707D01*
X111190Y47256D01*
Y42177D01*
X111916Y40725D01*
X112641Y40000D01*
X110464Y48707D02*
Y42177D01*
X111190Y40725D01*
X112641Y40000D01*
X113367D01*
X110464Y47256D02*
X109739Y46530D01*
X105386Y45805D01*
X103209Y45079D01*
X102483Y43628D01*
Y42177D01*
X103209Y40725D01*
X105386Y40000D01*
X107562D01*
X109013Y40725D01*
X110464Y42177D01*
X105386Y45805D02*
X103934Y45079D01*
X103209Y43628D01*
Y42177D01*
X103934Y40725D01*
X105386Y40000D01*
X131433Y55237D02*
Y40000D01*
X132159Y55237D02*
Y40000D01*
X136512Y50883D02*
Y45079D01*
X129256Y55237D02*
X140865D01*
Y50883D01*
X140140Y55237D01*
X132159Y47981D02*
X136512D01*
X129256Y40000D02*
X140865D01*
Y44353D01*
X140140Y40000D01*
X145146Y55237D02*
Y40000D01*
X145872Y55237D02*
Y40000D01*
X142970Y55237D02*
X148048D01*
X142970Y40000D02*
X153853D01*
Y44353D01*
X153127Y40000D01*
X171919Y55237D02*
Y40000D01*
X172645Y55237D02*
Y40000D01*
X182077Y55237D02*
X172645Y45805D01*
X176273Y48707D02*
X182077Y40000D01*
X175547Y48707D02*
X181352Y40000D01*
X169743Y55237D02*
X174821D01*
X179175D02*
X183528D01*
X169743Y40000D02*
X174821D01*
X179175D02*
X183528D01*
X187591Y55237D02*
Y40000D01*
X188317Y55237D02*
Y40000D01*
X197024Y55237D02*
Y40000D01*
X197749Y55237D02*
Y40000D01*
X185415Y55237D02*
X190494D01*
X194847D02*
X199926D01*
X188317Y47981D02*
X197024D01*
X185415Y40000D02*
X190494D01*
X194847D02*
X199926D01*
X208270Y55237D02*
X203191Y40000D01*
X208270Y55237D02*
X213349Y40000D01*
X208270Y53060D02*
X212623Y40000D01*
X204642Y44353D02*
X211172D01*
X201740Y40000D02*
X206093D01*
X210446D02*
X214800D01*
X226917Y53060D02*
X227642Y50883D01*
Y55237D01*
X226917Y53060D01*
X225466Y54511D01*
X223289Y55237D01*
X221838D01*
X219661Y54511D01*
X218210Y53060D01*
X217484Y51609D01*
X216759Y49432D01*
Y45805D01*
X217484Y43628D01*
X218210Y42177D01*
X219661Y40725D01*
X221838Y40000D01*
X223289D01*
X225466Y40725D01*
X226917Y42177D01*
X227642Y43628D01*
X221838Y55237D02*
X220387Y54511D01*
X218936Y53060D01*
X218210Y51609D01*
X217484Y49432D01*
Y45805D01*
X218210Y43628D01*
X218936Y42177D01*
X220387Y40725D01*
X221838Y40000D01*
X231996Y55237D02*
Y40000D01*
X232721Y55237D02*
Y40000D01*
X241428Y55237D02*
Y40000D01*
X242153Y55237D02*
Y40000D01*
X229819Y55237D02*
X234898D01*
X239251D02*
X244330D01*
X232721Y47981D02*
X241428D01*
X229819Y40000D02*
X234898D01*
X239251D02*
X244330D01*
X248321Y55237D02*
Y40000D01*
X249046Y55237D02*
Y40000D01*
X246144Y55237D02*
X251223D01*
X246144Y40000D02*
X251223D01*
X256157Y55237D02*
Y40000D01*
X256882Y55237D02*
X265589Y41451D01*
X256882Y53786D02*
X265589Y40000D01*
Y55237D02*
Y40000D01*
X253980Y55237D02*
X256882D01*
X263412D02*
X267766D01*
X253980Y40000D02*
X258333D01*
D12*
X118000Y169050D02*
D03*
Y156350D02*
D03*
Y143650D02*
D03*
Y130950D02*
D03*
X176000Y169050D02*
D03*
Y156350D02*
D03*
Y143650D02*
D03*
Y130950D02*
D03*
X168000Y371950D02*
D03*
Y384650D02*
D03*
Y397350D02*
D03*
Y410050D02*
D03*
X110000Y371950D02*
D03*
Y384650D02*
D03*
Y397350D02*
D03*
Y410050D02*
D03*
D13*
X386000Y303000D02*
D03*
Y357000D02*
D03*
Y197000D02*
D03*
Y143000D02*
D03*
D14*
X144500Y452000D02*
D03*
X175500D02*
D03*
X150500Y200000D02*
D03*
X181500D02*
D03*
D15*
X223250Y130000D02*
D03*
X322750D02*
D03*
X322750Y370000D02*
D03*
X223250D02*
D03*
D23*
X113730Y410050D02*
X113780Y410000D01*
X113160D02*
X126840D01*
X113680D02*
X113730Y410050D01*
X121730Y130950D02*
X134950D01*
X121730Y169050D02*
X134950D01*
X113730Y371950D02*
X126950D01*
D24*
X450000Y200000D02*
D03*
Y360000D02*
D03*
Y300000D02*
D03*
X50000D02*
D03*
Y200000D02*
D03*
X450000Y140000D02*
D03*
D25*
X95000Y155000D02*
D03*
Y145000D02*
D03*
Y135000D02*
D03*
X110000Y120000D02*
D03*
X95000D02*
D03*
Y105000D02*
D03*
X110000D02*
D03*
X120000Y120000D02*
D03*
X95000Y90000D02*
D03*
X120000D02*
D03*
Y105000D02*
D03*
X110000Y90000D02*
D03*
X265000Y315000D02*
D03*
X100000Y330000D02*
D03*
X110000Y345000D02*
D03*
Y330000D02*
D03*
X85000D02*
D03*
X110000Y360000D02*
D03*
X100000Y345000D02*
D03*
X85000D02*
D03*
Y360000D02*
D03*
X100000D02*
D03*
X85000Y375000D02*
D03*
Y385000D02*
D03*
Y395000D02*
D03*
X189000Y237000D02*
D03*
X181000D02*
D03*
X315000Y318000D02*
D03*
X324000D02*
D03*
X285000Y385000D02*
D03*
X385000Y180000D02*
D03*
X365000Y190000D02*
D03*
X405000Y205000D02*
D03*
Y190000D02*
D03*
X365000Y205000D02*
D03*
X385000Y215000D02*
D03*
Y320000D02*
D03*
X365000Y310000D02*
D03*
X405000Y295000D02*
D03*
Y310000D02*
D03*
X365000Y295000D02*
D03*
X135000Y215000D02*
D03*
Y200000D02*
D03*
Y190000D02*
D03*
X130000Y440000D02*
D03*
X145000Y435000D02*
D03*
X282000Y271000D02*
D03*
X259000Y261000D02*
D03*
Y237000D02*
D03*
X239000D02*
D03*
X373000Y160000D02*
D03*
X387000Y338000D02*
D03*
X229000Y204000D02*
D03*
X278000Y224000D02*
D03*
X215325Y233000D02*
D03*
X213388Y253000D02*
D03*
X239000Y262000D02*
D03*
X250250Y290750D02*
D03*
X259000Y290000D02*
D03*
X330000Y300000D02*
D03*
X211000Y266000D02*
D03*
X311000Y200000D02*
D03*
X143500Y272500D02*
D03*
X129000Y288000D02*
D03*
X185000Y372000D02*
D03*
X192000Y131000D02*
D03*
X135000Y130900D02*
D03*
Y169000D02*
D03*
X127000Y371900D02*
D03*
X385000Y285000D02*
D03*
X131230Y452050D02*
D03*
X100000Y385000D02*
D03*
Y395000D02*
D03*
X126840Y410000D02*
D03*
X286000Y408000D02*
D03*
X249500Y318500D02*
D03*
X302000Y312000D02*
D03*
X342000Y270000D02*
D03*
X336500Y247000D02*
D03*
X337500Y199500D02*
D03*
X343000Y222000D02*
D03*
X251000Y163000D02*
D03*
X292000Y351000D02*
D03*
X274000Y163000D02*
D03*
X227000D02*
D03*
X129000Y336000D02*
D03*
Y312000D02*
D03*
X199000Y305000D02*
D03*
X232000Y288000D02*
D03*
X310000Y258000D02*
D03*
X228617Y300868D02*
D03*
X129000Y239000D02*
D03*
X299000Y235000D02*
D03*
X247000Y209000D02*
D03*
X202000Y180000D02*
D03*
M02*
