G04*
G04 #@! TF.GenerationSoftware,Altium Limited,Altium Designer,19.1.7 (138)*
G04*
G04 Layer_Color=16711935*
%FSLAX44Y44*%
%MOMM*%
G71*
G01*
G75*
%ADD22C,4.2032*%
%ADD39R,3.4016X3.4016*%
%ADD40R,0.3316X0.7016*%
%ADD41R,0.7016X0.3316*%
%ADD42R,1.5032X0.9032*%
%ADD43R,1.1032X1.5032*%
%ADD44R,1.1032X1.8032*%
%ADD45R,0.9032X1.5032*%
D22*
X450000Y200000D02*
D03*
Y360000D02*
D03*
Y300000D02*
D03*
X50000D02*
D03*
Y200000D02*
D03*
X450000Y140000D02*
D03*
D39*
X250000Y250000D02*
D03*
D40*
X267500Y274000D02*
D03*
X262500D02*
D03*
X257500D02*
D03*
X252500D02*
D03*
X247500D02*
D03*
X242500D02*
D03*
X237500D02*
D03*
X232500D02*
D03*
Y226000D02*
D03*
X237500D02*
D03*
X242500D02*
D03*
X247500D02*
D03*
X252500D02*
D03*
X257500D02*
D03*
X262500D02*
D03*
X267500D02*
D03*
D41*
X226000Y267500D02*
D03*
Y262500D02*
D03*
Y257500D02*
D03*
Y252500D02*
D03*
Y247500D02*
D03*
Y242500D02*
D03*
Y237500D02*
D03*
Y232500D02*
D03*
X274000D02*
D03*
Y237500D02*
D03*
Y242500D02*
D03*
Y247500D02*
D03*
Y252500D02*
D03*
Y257500D02*
D03*
Y262500D02*
D03*
Y267500D02*
D03*
D42*
X227000Y176500D02*
D03*
Y195500D02*
D03*
X251000Y176500D02*
D03*
Y195500D02*
D03*
X274000Y195500D02*
D03*
Y176500D02*
D03*
X301000Y180500D02*
D03*
Y199500D02*
D03*
X324000Y199500D02*
D03*
Y180500D02*
D03*
X263000Y299500D02*
D03*
Y318500D02*
D03*
D43*
X320500Y298000D02*
D03*
X301500D02*
D03*
X323000Y247000D02*
D03*
X304000D02*
D03*
X328500Y270000D02*
D03*
X309500D02*
D03*
X319500Y328000D02*
D03*
X300500D02*
D03*
X183000Y198000D02*
D03*
X202000D02*
D03*
X202500Y244000D02*
D03*
X183500D02*
D03*
X199500Y293000D02*
D03*
X180500D02*
D03*
D44*
X329500Y222000D02*
D03*
X298500D02*
D03*
D45*
X300500Y352000D02*
D03*
X319500D02*
D03*
X272500Y339000D02*
D03*
X253500D02*
D03*
X253500Y362000D02*
D03*
X272500D02*
D03*
X272500Y385000D02*
D03*
X253500D02*
D03*
X253500Y408000D02*
D03*
X272500D02*
D03*
X184500Y221000D02*
D03*
X203500D02*
D03*
X202500Y269000D02*
D03*
X183500D02*
D03*
X161500Y239000D02*
D03*
X142500D02*
D03*
X142500Y262000D02*
D03*
X161500D02*
D03*
X161500Y288000D02*
D03*
X142500D02*
D03*
Y312000D02*
D03*
X161500D02*
D03*
X142500Y336000D02*
D03*
X161500D02*
D03*
M02*
