G04*
G04 #@! TF.GenerationSoftware,Altium Limited,Altium Designer,19.1.7 (138)*
G04*
G04 Layer_Physical_Order=4*
G04 Layer_Color=16440176*
%FSLAX44Y44*%
%MOMM*%
G71*
G01*
G75*
%ADD25C,0.6000*%
G36*
X417000Y50000D02*
X73000D01*
Y460000D01*
X417000D01*
Y50000D01*
D02*
G37*
%LPC*%
G36*
X131230Y457148D02*
X129279Y456760D01*
X127625Y455655D01*
X126520Y454001D01*
X126132Y452050D01*
X126520Y450099D01*
X127625Y448445D01*
X129279Y447340D01*
X131230Y446952D01*
X133181Y447340D01*
X134835Y448445D01*
X135940Y450099D01*
X136328Y452050D01*
X135940Y454001D01*
X134835Y455655D01*
X133181Y456760D01*
X131230Y457148D01*
D02*
G37*
G36*
X130000Y445098D02*
X128049Y444710D01*
X126395Y443605D01*
X125290Y441951D01*
X124902Y440000D01*
X125290Y438049D01*
X126395Y436395D01*
X128049Y435290D01*
X130000Y434902D01*
X131951Y435290D01*
X133605Y436395D01*
X134710Y438049D01*
X135098Y440000D01*
X134710Y441951D01*
X133605Y443605D01*
X131951Y444710D01*
X130000Y445098D01*
D02*
G37*
G36*
X145000Y440098D02*
X143049Y439710D01*
X141395Y438605D01*
X140290Y436951D01*
X139902Y435000D01*
X140290Y433049D01*
X141395Y431395D01*
X143049Y430290D01*
X145000Y429902D01*
X146951Y430290D01*
X148605Y431395D01*
X149710Y433049D01*
X150098Y435000D01*
X149710Y436951D01*
X148605Y438605D01*
X146951Y439710D01*
X145000Y440098D01*
D02*
G37*
G36*
X126840Y415098D02*
X124889Y414710D01*
X123235Y413605D01*
X122130Y411951D01*
X121742Y410000D01*
X122130Y408049D01*
X123235Y406395D01*
X124889Y405290D01*
X126840Y404902D01*
X128791Y405290D01*
X130445Y406395D01*
X131550Y408049D01*
X131938Y410000D01*
X131550Y411951D01*
X130445Y413605D01*
X128791Y414710D01*
X126840Y415098D01*
D02*
G37*
G36*
X286000Y413098D02*
X284049Y412710D01*
X282395Y411605D01*
X281290Y409951D01*
X280902Y408000D01*
X281290Y406049D01*
X282395Y404395D01*
X284049Y403290D01*
X286000Y402902D01*
X287951Y403290D01*
X289605Y404395D01*
X290710Y406049D01*
X291098Y408000D01*
X290710Y409951D01*
X289605Y411605D01*
X287951Y412710D01*
X286000Y413098D01*
D02*
G37*
G36*
X100000Y400098D02*
X98049Y399710D01*
X96395Y398605D01*
X95290Y396951D01*
X94902Y395000D01*
X95290Y393049D01*
X96395Y391395D01*
X96683Y391203D01*
Y388797D01*
X96395Y388605D01*
X95290Y386951D01*
X94902Y385000D01*
X95290Y383049D01*
X96395Y381395D01*
X96683Y381203D01*
Y378797D01*
X96395Y378605D01*
X95290Y376951D01*
X94902Y375000D01*
X95290Y373049D01*
X96395Y371395D01*
X98049Y370290D01*
X100000Y369902D01*
X101951Y370290D01*
X103605Y371395D01*
X104710Y373049D01*
X105098Y375000D01*
X104710Y376951D01*
X103605Y378605D01*
X103317Y378797D01*
Y381203D01*
X103605Y381395D01*
X104710Y383049D01*
X105098Y385000D01*
X104710Y386951D01*
X103605Y388605D01*
X103317Y388797D01*
Y391203D01*
X103605Y391395D01*
X104710Y393049D01*
X105098Y395000D01*
X104710Y396951D01*
X103605Y398605D01*
X101951Y399710D01*
X100000Y400098D01*
D02*
G37*
G36*
X85000D02*
X83049Y399710D01*
X81395Y398605D01*
X80290Y396951D01*
X79902Y395000D01*
X80290Y393049D01*
X81395Y391395D01*
X81683Y391203D01*
Y388797D01*
X81395Y388605D01*
X80290Y386951D01*
X79902Y385000D01*
X80290Y383049D01*
X81395Y381395D01*
X81683Y381203D01*
Y378797D01*
X81395Y378605D01*
X80290Y376951D01*
X79902Y375000D01*
X80290Y373049D01*
X81395Y371395D01*
X83049Y370290D01*
X85000Y369902D01*
X86951Y370290D01*
X88605Y371395D01*
X89710Y373049D01*
X90098Y375000D01*
X89710Y376951D01*
X88605Y378605D01*
X88317Y378797D01*
Y381203D01*
X88605Y381395D01*
X89710Y383049D01*
X90098Y385000D01*
X89710Y386951D01*
X88605Y388605D01*
X88317Y388797D01*
Y391203D01*
X88605Y391395D01*
X89710Y393049D01*
X90098Y395000D01*
X89710Y396951D01*
X88605Y398605D01*
X86951Y399710D01*
X85000Y400098D01*
D02*
G37*
G36*
X185000Y377098D02*
X183049Y376710D01*
X181395Y375605D01*
X180290Y373951D01*
X179902Y372000D01*
X180290Y370049D01*
X181395Y368395D01*
X183049Y367290D01*
X185000Y366902D01*
X186951Y367290D01*
X188605Y368395D01*
X189710Y370049D01*
X190098Y372000D01*
X189710Y373951D01*
X188605Y375605D01*
X186951Y376710D01*
X185000Y377098D01*
D02*
G37*
G36*
X127000Y376998D02*
X125049Y376610D01*
X123395Y375505D01*
X122290Y373851D01*
X121902Y371900D01*
X122290Y369949D01*
X123395Y368295D01*
X125049Y367190D01*
X127000Y366802D01*
X128951Y367190D01*
X130605Y368295D01*
X131710Y369949D01*
X132098Y371900D01*
X131710Y373851D01*
X130605Y375505D01*
X128951Y376610D01*
X127000Y376998D01*
D02*
G37*
G36*
X110000Y365098D02*
X108049Y364710D01*
X106395Y363605D01*
X106203Y363317D01*
X103797D01*
X103605Y363605D01*
X101951Y364710D01*
X100000Y365098D01*
X98049Y364710D01*
X96395Y363605D01*
X95290Y361951D01*
X94902Y360000D01*
X95290Y358049D01*
X96395Y356395D01*
X98049Y355290D01*
X100000Y354902D01*
X101951Y355290D01*
X103605Y356395D01*
X103797Y356683D01*
X106203D01*
X106395Y356395D01*
X108049Y355290D01*
X110000Y354902D01*
X111951Y355290D01*
X113605Y356395D01*
X114710Y358049D01*
X115098Y360000D01*
X114710Y361951D01*
X113605Y363605D01*
X111951Y364710D01*
X110000Y365098D01*
D02*
G37*
G36*
X85000D02*
X83049Y364710D01*
X81395Y363605D01*
X80290Y361951D01*
X79902Y360000D01*
X80290Y358049D01*
X81395Y356395D01*
X83049Y355290D01*
X85000Y354902D01*
X86951Y355290D01*
X88605Y356395D01*
X89710Y358049D01*
X90098Y360000D01*
X89710Y361951D01*
X88605Y363605D01*
X86951Y364710D01*
X85000Y365098D01*
D02*
G37*
G36*
X110000Y350098D02*
X108049Y349710D01*
X106395Y348605D01*
X106203Y348317D01*
X103797D01*
X103605Y348605D01*
X101951Y349710D01*
X100000Y350098D01*
X98049Y349710D01*
X96395Y348605D01*
X95290Y346951D01*
X94902Y345000D01*
X95290Y343049D01*
X96395Y341395D01*
X98049Y340290D01*
X100000Y339902D01*
X101951Y340290D01*
X103605Y341395D01*
X103797Y341683D01*
X106203D01*
X106395Y341395D01*
X108049Y340290D01*
X110000Y339902D01*
X111951Y340290D01*
X113605Y341395D01*
X114710Y343049D01*
X115098Y345000D01*
X114710Y346951D01*
X113605Y348605D01*
X111951Y349710D01*
X110000Y350098D01*
D02*
G37*
G36*
X85000D02*
X83049Y349710D01*
X81395Y348605D01*
X80290Y346951D01*
X79902Y345000D01*
X80290Y343049D01*
X81395Y341395D01*
X83049Y340290D01*
X85000Y339902D01*
X86951Y340290D01*
X88605Y341395D01*
X89710Y343049D01*
X90098Y345000D01*
X89710Y346951D01*
X88605Y348605D01*
X86951Y349710D01*
X85000Y350098D01*
D02*
G37*
G36*
X110000Y335098D02*
X108049Y334710D01*
X106395Y333605D01*
X106203Y333317D01*
X103797D01*
X103605Y333605D01*
X101951Y334710D01*
X100000Y335098D01*
X98049Y334710D01*
X96395Y333605D01*
X95290Y331951D01*
X94902Y330000D01*
X95290Y328049D01*
X96395Y326395D01*
X98049Y325290D01*
X100000Y324902D01*
X101951Y325290D01*
X103605Y326395D01*
X103797Y326683D01*
X106203D01*
X106395Y326395D01*
X108049Y325290D01*
X110000Y324902D01*
X111951Y325290D01*
X113605Y326395D01*
X114710Y328049D01*
X115098Y330000D01*
X114710Y331951D01*
X113605Y333605D01*
X111951Y334710D01*
X110000Y335098D01*
D02*
G37*
G36*
X387000Y343098D02*
X385049Y342710D01*
X383395Y341605D01*
X382290Y339951D01*
X381902Y338000D01*
X382290Y336049D01*
X383395Y334395D01*
X385049Y333290D01*
X387000Y332902D01*
X388951Y333290D01*
X390605Y334395D01*
X391710Y336049D01*
X392098Y338000D01*
X391710Y339951D01*
X390605Y341605D01*
X388951Y342710D01*
X387000Y343098D01*
D02*
G37*
G36*
X85000Y335098D02*
X83049Y334710D01*
X81395Y333605D01*
X80290Y331951D01*
X79902Y330000D01*
X80290Y328049D01*
X81395Y326395D01*
X83049Y325290D01*
X85000Y324902D01*
X86951Y325290D01*
X88605Y326395D01*
X89710Y328049D01*
X90098Y330000D01*
X89710Y331951D01*
X88605Y333605D01*
X86951Y334710D01*
X85000Y335098D01*
D02*
G37*
G36*
X324000Y323098D02*
X322049Y322710D01*
X320820Y321889D01*
X319500Y321720D01*
X318180Y321889D01*
X316951Y322710D01*
X315000Y323098D01*
X313049Y322710D01*
X311395Y321605D01*
X310290Y319951D01*
X309902Y318000D01*
X310290Y316049D01*
X311395Y314395D01*
X313049Y313290D01*
X315000Y312902D01*
X316951Y313290D01*
X318180Y314111D01*
X319500Y314280D01*
X320820Y314111D01*
X322049Y313290D01*
X324000Y312902D01*
X325951Y313290D01*
X327605Y314395D01*
X328710Y316049D01*
X329098Y318000D01*
X328710Y319951D01*
X327605Y321605D01*
X325951Y322710D01*
X324000Y323098D01*
D02*
G37*
G36*
X385000Y325098D02*
X383049Y324710D01*
X381395Y323605D01*
X380290Y321951D01*
X379902Y320000D01*
X380290Y318049D01*
X381395Y316395D01*
X383049Y315290D01*
X385000Y314902D01*
X386951Y315290D01*
X388605Y316395D01*
X389710Y318049D01*
X390098Y320000D01*
X389710Y321951D01*
X388605Y323605D01*
X386951Y324710D01*
X385000Y325098D01*
D02*
G37*
G36*
X249500Y323598D02*
X247549Y323210D01*
X245895Y322105D01*
X244790Y320451D01*
X244402Y318500D01*
X244790Y316549D01*
X245895Y314895D01*
X247549Y313790D01*
X249500Y313402D01*
X251451Y313790D01*
X253105Y314895D01*
X254210Y316549D01*
X254598Y318500D01*
X254210Y320451D01*
X253105Y322105D01*
X251451Y323210D01*
X249500Y323598D01*
D02*
G37*
G36*
X265000Y320098D02*
X263049Y319710D01*
X261395Y318605D01*
X260290Y316951D01*
X259902Y315000D01*
X260290Y313049D01*
X261395Y311395D01*
X263049Y310290D01*
X265000Y309902D01*
X266951Y310290D01*
X268605Y311395D01*
X269710Y313049D01*
X270098Y315000D01*
X269710Y316951D01*
X268605Y318605D01*
X266951Y319710D01*
X265000Y320098D01*
D02*
G37*
G36*
X405000Y315098D02*
X403049Y314710D01*
X401395Y313605D01*
X400290Y311951D01*
X399902Y310000D01*
X400290Y308049D01*
X401395Y306395D01*
X403049Y305290D01*
X405000Y304902D01*
X406951Y305290D01*
X408605Y306395D01*
X409710Y308049D01*
X410098Y310000D01*
X409710Y311951D01*
X408605Y313605D01*
X406951Y314710D01*
X405000Y315098D01*
D02*
G37*
G36*
X365000D02*
X363049Y314710D01*
X361395Y313605D01*
X360290Y311951D01*
X359902Y310000D01*
X360290Y308049D01*
X361395Y306395D01*
X363049Y305290D01*
X365000Y304902D01*
X366951Y305290D01*
X368605Y306395D01*
X369710Y308049D01*
X370098Y310000D01*
X369710Y311951D01*
X368605Y313605D01*
X366951Y314710D01*
X365000Y315098D01*
D02*
G37*
G36*
X199000Y310098D02*
X197049Y309710D01*
X195395Y308605D01*
X194290Y306951D01*
X193902Y305000D01*
X194290Y303049D01*
X195395Y301395D01*
X197049Y300290D01*
X199000Y299902D01*
X200951Y300290D01*
X202605Y301395D01*
X203710Y303049D01*
X204098Y305000D01*
X203710Y306951D01*
X202605Y308605D01*
X200951Y309710D01*
X199000Y310098D01*
D02*
G37*
G36*
X228617Y305966D02*
X226667Y305578D01*
X225013Y304473D01*
X223908Y302819D01*
X223520Y300868D01*
X223908Y298917D01*
X225013Y297263D01*
X226667Y296158D01*
X228617Y295770D01*
X230568Y296158D01*
X232222Y297263D01*
X233327Y298917D01*
X233715Y300868D01*
X233327Y302819D01*
X232222Y304473D01*
X230568Y305578D01*
X228617Y305966D01*
D02*
G37*
G36*
X330000Y305098D02*
X328049Y304710D01*
X326395Y303605D01*
X325290Y301951D01*
X324902Y300000D01*
X325290Y298049D01*
X326395Y296395D01*
X328049Y295290D01*
X330000Y294902D01*
X331951Y295290D01*
X333605Y296395D01*
X334710Y298049D01*
X335098Y300000D01*
X334710Y301951D01*
X333605Y303605D01*
X331951Y304710D01*
X330000Y305098D01*
D02*
G37*
G36*
X405000Y300098D02*
X403049Y299710D01*
X401395Y298605D01*
X400290Y296951D01*
X399902Y295000D01*
X400290Y293049D01*
X401395Y291395D01*
X403049Y290290D01*
X405000Y289902D01*
X406951Y290290D01*
X408605Y291395D01*
X409710Y293049D01*
X410098Y295000D01*
X409710Y296951D01*
X408605Y298605D01*
X406951Y299710D01*
X405000Y300098D01*
D02*
G37*
G36*
X365000D02*
X363049Y299710D01*
X361395Y298605D01*
X360290Y296951D01*
X359902Y295000D01*
X360290Y293049D01*
X361395Y291395D01*
X363049Y290290D01*
X365000Y289902D01*
X366951Y290290D01*
X368605Y291395D01*
X369710Y293049D01*
X370098Y295000D01*
X369710Y296951D01*
X368605Y298605D01*
X366951Y299710D01*
X365000Y300098D01*
D02*
G37*
G36*
X250250Y295848D02*
X248299Y295460D01*
X246645Y294355D01*
X245540Y292701D01*
X245152Y290750D01*
X245540Y288799D01*
X246645Y287145D01*
X248299Y286040D01*
X250250Y285652D01*
X252201Y286040D01*
X252910Y286514D01*
X255395Y286395D01*
X257049Y285290D01*
X259000Y284902D01*
X260951Y285290D01*
X262605Y286395D01*
X263710Y288049D01*
X264098Y290000D01*
X263710Y291951D01*
X262605Y293605D01*
X260951Y294710D01*
X259000Y295098D01*
X257049Y294710D01*
X256340Y294236D01*
X253855Y294355D01*
X252201Y295460D01*
X250250Y295848D01*
D02*
G37*
G36*
X232000Y293098D02*
X230049Y292710D01*
X228395Y291605D01*
X227290Y289951D01*
X226902Y288000D01*
X227290Y286049D01*
X228395Y284395D01*
X230049Y283290D01*
X232000Y282902D01*
X233951Y283290D01*
X235605Y284395D01*
X236710Y286049D01*
X237098Y288000D01*
X236710Y289951D01*
X235605Y291605D01*
X233951Y292710D01*
X232000Y293098D01*
D02*
G37*
G36*
X385000Y290098D02*
X383049Y289710D01*
X381395Y288605D01*
X380290Y286951D01*
X379902Y285000D01*
X380290Y283049D01*
X381395Y281395D01*
X383049Y280290D01*
X385000Y279902D01*
X386951Y280290D01*
X388605Y281395D01*
X389710Y283049D01*
X390098Y285000D01*
X389710Y286951D01*
X388605Y288605D01*
X386951Y289710D01*
X385000Y290098D01*
D02*
G37*
G36*
X143500Y277598D02*
X141549Y277210D01*
X139895Y276105D01*
X138790Y274451D01*
X138402Y272500D01*
X138790Y270549D01*
X139895Y268895D01*
X141549Y267790D01*
X143500Y267402D01*
X145451Y267790D01*
X147105Y268895D01*
X148210Y270549D01*
X148598Y272500D01*
X148210Y274451D01*
X147105Y276105D01*
X145451Y277210D01*
X143500Y277598D01*
D02*
G37*
G36*
X342000Y275098D02*
X340049Y274710D01*
X338395Y273605D01*
X337290Y271951D01*
X336902Y270000D01*
X337290Y268049D01*
X338395Y266395D01*
X340049Y265290D01*
X342000Y264902D01*
X343951Y265290D01*
X345605Y266395D01*
X346710Y268049D01*
X347098Y270000D01*
X346710Y271951D01*
X345605Y273605D01*
X343951Y274710D01*
X342000Y275098D01*
D02*
G37*
G36*
X211000Y271098D02*
X209049Y270710D01*
X207395Y269605D01*
X206290Y267951D01*
X205902Y266000D01*
X206290Y264049D01*
X207395Y262395D01*
X209049Y261290D01*
X211000Y260902D01*
X212951Y261290D01*
X214605Y262395D01*
X215710Y264049D01*
X216098Y266000D01*
X215710Y267951D01*
X214605Y269605D01*
X212951Y270710D01*
X211000Y271098D01*
D02*
G37*
G36*
X239000Y267098D02*
X237049Y266710D01*
X235395Y265605D01*
X234290Y263951D01*
X233902Y262000D01*
X234290Y260049D01*
X235395Y258395D01*
X237049Y257290D01*
X239000Y256902D01*
X240951Y257290D01*
X242605Y258395D01*
X243710Y260049D01*
X244098Y262000D01*
X243710Y263951D01*
X242605Y265605D01*
X240951Y266710D01*
X239000Y267098D01*
D02*
G37*
G36*
X259000Y266098D02*
X257049Y265710D01*
X255395Y264605D01*
X254290Y262951D01*
X253902Y261000D01*
X254290Y259049D01*
X255395Y257395D01*
X257049Y256290D01*
X259000Y255902D01*
X260951Y256290D01*
X262605Y257395D01*
X263710Y259049D01*
X264098Y261000D01*
X263710Y262951D01*
X262605Y264605D01*
X260951Y265710D01*
X259000Y266098D01*
D02*
G37*
G36*
X310000Y263098D02*
X308049Y262710D01*
X306395Y261605D01*
X305290Y259951D01*
X304902Y258000D01*
X305290Y256049D01*
X306395Y254395D01*
X308049Y253290D01*
X310000Y252902D01*
X311951Y253290D01*
X313605Y254395D01*
X314710Y256049D01*
X315098Y258000D01*
X314710Y259951D01*
X313605Y261605D01*
X311951Y262710D01*
X310000Y263098D01*
D02*
G37*
G36*
X336500Y252098D02*
X334549Y251710D01*
X332895Y250605D01*
X331790Y248951D01*
X331402Y247000D01*
X331790Y245049D01*
X332895Y243395D01*
X334549Y242290D01*
X336500Y241902D01*
X338451Y242290D01*
X340105Y243395D01*
X341210Y245049D01*
X341598Y247000D01*
X341210Y248951D01*
X340105Y250605D01*
X338451Y251710D01*
X336500Y252098D01*
D02*
G37*
G36*
X189000Y242098D02*
X187049Y241710D01*
X185395Y240605D01*
X184605D01*
X182951Y241710D01*
X181000Y242098D01*
X179049Y241710D01*
X177395Y240605D01*
X176290Y238951D01*
X175902Y237000D01*
X176290Y235049D01*
X177395Y233395D01*
X179049Y232290D01*
X181000Y231902D01*
X182951Y232290D01*
X184605Y233395D01*
X185395D01*
X187049Y232290D01*
X189000Y231902D01*
X190951Y232290D01*
X192605Y233395D01*
X193710Y235049D01*
X194098Y237000D01*
X193710Y238951D01*
X192605Y240605D01*
X190951Y241710D01*
X189000Y242098D01*
D02*
G37*
G36*
X129000Y244098D02*
X127049Y243710D01*
X125395Y242605D01*
X124290Y240951D01*
X123902Y239000D01*
X124290Y237049D01*
X125395Y235395D01*
X127049Y234290D01*
X129000Y233902D01*
X130951Y234290D01*
X132605Y235395D01*
X133710Y237049D01*
X134098Y239000D01*
X133710Y240951D01*
X132605Y242605D01*
X130951Y243710D01*
X129000Y244098D01*
D02*
G37*
G36*
X259000Y242098D02*
X257049Y241710D01*
X255395Y240605D01*
X254290Y238951D01*
X253902Y237000D01*
X254290Y235049D01*
X255395Y233395D01*
X257049Y232290D01*
X259000Y231902D01*
X260951Y232290D01*
X262605Y233395D01*
X263710Y235049D01*
X264098Y237000D01*
X263710Y238951D01*
X262605Y240605D01*
X260951Y241710D01*
X259000Y242098D01*
D02*
G37*
G36*
X239000D02*
X237049Y241710D01*
X235395Y240605D01*
X234290Y238951D01*
X233902Y237000D01*
X234290Y235049D01*
X235395Y233395D01*
X237049Y232290D01*
X239000Y231902D01*
X240951Y232290D01*
X242605Y233395D01*
X243710Y235049D01*
X244098Y237000D01*
X243710Y238951D01*
X242605Y240605D01*
X240951Y241710D01*
X239000Y242098D01*
D02*
G37*
G36*
X299000Y240098D02*
X297049Y239710D01*
X295395Y238605D01*
X294290Y236951D01*
X293902Y235000D01*
X294290Y233049D01*
X295395Y231395D01*
X297049Y230290D01*
X299000Y229902D01*
X300951Y230290D01*
X302605Y231395D01*
X303710Y233049D01*
X304098Y235000D01*
X303710Y236951D01*
X302605Y238605D01*
X300951Y239710D01*
X299000Y240098D01*
D02*
G37*
G36*
X215325Y238098D02*
X213374Y237710D01*
X211720Y236605D01*
X210615Y234951D01*
X210227Y233000D01*
X210615Y231049D01*
X211720Y229395D01*
X213374Y228290D01*
X215325Y227902D01*
X217276Y228290D01*
X218930Y229395D01*
X220035Y231049D01*
X220423Y233000D01*
X220035Y234951D01*
X218930Y236605D01*
X217276Y237710D01*
X215325Y238098D01*
D02*
G37*
G36*
X278000Y229098D02*
X276049Y228710D01*
X274395Y227605D01*
X273290Y225951D01*
X272902Y224000D01*
X273290Y222049D01*
X274395Y220395D01*
X276049Y219290D01*
X278000Y218902D01*
X279951Y219290D01*
X281605Y220395D01*
X282710Y222049D01*
X283098Y224000D01*
X282710Y225951D01*
X281605Y227605D01*
X279951Y228710D01*
X278000Y229098D01*
D02*
G37*
G36*
X343000Y227098D02*
X341049Y226710D01*
X339395Y225605D01*
X338290Y223951D01*
X337902Y222000D01*
X338290Y220049D01*
X339395Y218395D01*
X341049Y217290D01*
X343000Y216902D01*
X344951Y217290D01*
X346605Y218395D01*
X347710Y220049D01*
X348098Y222000D01*
X347710Y223951D01*
X346605Y225605D01*
X344951Y226710D01*
X343000Y227098D01*
D02*
G37*
G36*
X135000Y220098D02*
X133049Y219710D01*
X131395Y218605D01*
X130290Y216951D01*
X129902Y215000D01*
X130290Y213049D01*
X131395Y211395D01*
X133049Y210290D01*
X135000Y209902D01*
X136951Y210290D01*
X138605Y211395D01*
X139710Y213049D01*
X140098Y215000D01*
X139710Y216951D01*
X138605Y218605D01*
X136951Y219710D01*
X135000Y220098D01*
D02*
G37*
G36*
X385000Y220098D02*
X383049Y219710D01*
X381395Y218605D01*
X380290Y216951D01*
X379902Y215000D01*
X380290Y213049D01*
X381395Y211395D01*
X383049Y210290D01*
X385000Y209902D01*
X386951Y210290D01*
X388605Y211395D01*
X389710Y213049D01*
X390098Y215000D01*
X389710Y216951D01*
X388605Y218605D01*
X386951Y219710D01*
X385000Y220098D01*
D02*
G37*
G36*
X247000Y214098D02*
X245049Y213710D01*
X243395Y212605D01*
X242290Y210951D01*
X241902Y209000D01*
X242290Y207049D01*
X243395Y205395D01*
X245049Y204290D01*
X247000Y203902D01*
X248951Y204290D01*
X250605Y205395D01*
X251710Y207049D01*
X252098Y209000D01*
X251710Y210951D01*
X250605Y212605D01*
X248951Y213710D01*
X247000Y214098D01*
D02*
G37*
G36*
X405000Y210098D02*
X403049Y209710D01*
X401395Y208605D01*
X400290Y206951D01*
X399902Y205000D01*
X400290Y203049D01*
X401395Y201395D01*
X403049Y200290D01*
X405000Y199902D01*
X406951Y200290D01*
X408605Y201395D01*
X409710Y203049D01*
X410098Y205000D01*
X409710Y206951D01*
X408605Y208605D01*
X406951Y209710D01*
X405000Y210098D01*
D02*
G37*
G36*
X365000D02*
X363049Y209710D01*
X361395Y208605D01*
X360290Y206951D01*
X359902Y205000D01*
X360290Y203049D01*
X361395Y201395D01*
X363049Y200290D01*
X365000Y199902D01*
X366951Y200290D01*
X368605Y201395D01*
X369710Y203049D01*
X370098Y205000D01*
X369710Y206951D01*
X368605Y208605D01*
X366951Y209710D01*
X365000Y210098D01*
D02*
G37*
G36*
X229000Y209098D02*
X227049Y208710D01*
X225395Y207605D01*
X224290Y205951D01*
X223902Y204000D01*
X224290Y202049D01*
X225395Y200395D01*
X227049Y199290D01*
X229000Y198902D01*
X230951Y199290D01*
X232605Y200395D01*
X233710Y202049D01*
X234098Y204000D01*
X233710Y205951D01*
X232605Y207605D01*
X230951Y208710D01*
X229000Y209098D01*
D02*
G37*
G36*
X311000Y205098D02*
X309049Y204710D01*
X307395Y203605D01*
X306290Y201951D01*
X305902Y200000D01*
X306290Y198049D01*
X307395Y196395D01*
X309049Y195290D01*
X311000Y194902D01*
X312951Y195290D01*
X314605Y196395D01*
X315710Y198049D01*
X316098Y200000D01*
X315710Y201951D01*
X314605Y203605D01*
X312951Y204710D01*
X311000Y205098D01*
D02*
G37*
G36*
X337500Y204598D02*
X335549Y204210D01*
X333895Y203105D01*
X332790Y201451D01*
X332402Y199500D01*
X332790Y197549D01*
X333895Y195895D01*
X335549Y194790D01*
X337500Y194402D01*
X339451Y194790D01*
X341105Y195895D01*
X342210Y197549D01*
X342598Y199500D01*
X342210Y201451D01*
X341105Y203105D01*
X339451Y204210D01*
X337500Y204598D01*
D02*
G37*
G36*
X135000Y205098D02*
X133049Y204710D01*
X131395Y203605D01*
X130290Y201951D01*
X129902Y200000D01*
X130290Y198049D01*
X131395Y196395D01*
X131683Y196203D01*
Y193797D01*
X131395Y193605D01*
X130290Y191951D01*
X129902Y190000D01*
X130290Y188049D01*
X131395Y186395D01*
X133049Y185290D01*
X135000Y184902D01*
X136951Y185290D01*
X138605Y186395D01*
X139710Y188049D01*
X140098Y190000D01*
X139710Y191951D01*
X138605Y193605D01*
X138317Y193797D01*
Y196203D01*
X138605Y196395D01*
X139710Y198049D01*
X140098Y200000D01*
X139710Y201951D01*
X138605Y203605D01*
X136951Y204710D01*
X135000Y205098D01*
D02*
G37*
G36*
X405000Y195098D02*
X403049Y194710D01*
X401395Y193605D01*
X400290Y191951D01*
X399902Y190000D01*
X400290Y188049D01*
X401395Y186395D01*
X403049Y185290D01*
X405000Y184902D01*
X406951Y185290D01*
X408605Y186395D01*
X409710Y188049D01*
X410098Y190000D01*
X409710Y191951D01*
X408605Y193605D01*
X406951Y194710D01*
X405000Y195098D01*
D02*
G37*
G36*
X365000D02*
X363049Y194710D01*
X361395Y193605D01*
X360290Y191951D01*
X359902Y190000D01*
X360290Y188049D01*
X361395Y186395D01*
X363049Y185290D01*
X365000Y184902D01*
X366951Y185290D01*
X368605Y186395D01*
X369710Y188049D01*
X370098Y190000D01*
X369710Y191951D01*
X368605Y193605D01*
X366951Y194710D01*
X365000Y195098D01*
D02*
G37*
G36*
X202000Y185098D02*
X200049Y184710D01*
X198395Y183605D01*
X197290Y181951D01*
X196902Y180000D01*
X197290Y178049D01*
X198395Y176395D01*
X200049Y175290D01*
X202000Y174902D01*
X203951Y175290D01*
X205605Y176395D01*
X206710Y178049D01*
X207098Y180000D01*
X206710Y181951D01*
X205605Y183605D01*
X203951Y184710D01*
X202000Y185098D01*
D02*
G37*
G36*
X385000Y185098D02*
X383049Y184710D01*
X381395Y183605D01*
X380290Y181951D01*
X379902Y180000D01*
X380290Y178049D01*
X381395Y176395D01*
X383049Y175290D01*
X385000Y174902D01*
X386951Y175290D01*
X388605Y176395D01*
X389710Y178049D01*
X390098Y180000D01*
X389710Y181951D01*
X388605Y183605D01*
X386951Y184710D01*
X385000Y185098D01*
D02*
G37*
G36*
X135000Y174098D02*
X133049Y173710D01*
X131395Y172605D01*
X130290Y170951D01*
X129902Y169000D01*
X130290Y167049D01*
X131395Y165395D01*
X133049Y164290D01*
X135000Y163902D01*
X136951Y164290D01*
X138605Y165395D01*
X139710Y167049D01*
X140098Y169000D01*
X139710Y170951D01*
X138605Y172605D01*
X136951Y173710D01*
X135000Y174098D01*
D02*
G37*
G36*
X251000Y168098D02*
X249049Y167710D01*
X247395Y166605D01*
X246290Y164951D01*
X245902Y163000D01*
X246290Y161049D01*
X247395Y159395D01*
X249049Y158290D01*
X251000Y157902D01*
X252951Y158290D01*
X254605Y159395D01*
X255710Y161049D01*
X256098Y163000D01*
X255710Y164951D01*
X254605Y166605D01*
X252951Y167710D01*
X251000Y168098D01*
D02*
G37*
G36*
X373000Y165098D02*
X371049Y164710D01*
X369395Y163605D01*
X368290Y161951D01*
X367902Y160000D01*
X368290Y158049D01*
X369395Y156395D01*
X371049Y155290D01*
X373000Y154902D01*
X374951Y155290D01*
X376605Y156395D01*
X377710Y158049D01*
X378098Y160000D01*
X377710Y161951D01*
X376605Y163605D01*
X374951Y164710D01*
X373000Y165098D01*
D02*
G37*
G36*
X192000Y136098D02*
X190049Y135710D01*
X188395Y134605D01*
X187290Y132951D01*
X186902Y131000D01*
X187290Y129049D01*
X188395Y127395D01*
X190049Y126290D01*
X192000Y125902D01*
X193951Y126290D01*
X195605Y127395D01*
X196710Y129049D01*
X197098Y131000D01*
X196710Y132951D01*
X195605Y134605D01*
X193951Y135710D01*
X192000Y136098D01*
D02*
G37*
G36*
X135000Y135998D02*
X133049Y135610D01*
X131395Y134505D01*
X130290Y132851D01*
X129902Y130900D01*
X130290Y128949D01*
X131395Y127295D01*
X133049Y126190D01*
X135000Y125802D01*
X136951Y126190D01*
X138605Y127295D01*
X139710Y128949D01*
X140098Y130900D01*
X139710Y132851D01*
X138605Y134505D01*
X136951Y135610D01*
X135000Y135998D01*
D02*
G37*
G36*
X95000Y160098D02*
X93049Y159710D01*
X91395Y158605D01*
X90290Y156951D01*
X89902Y155000D01*
X90290Y153049D01*
X91395Y151395D01*
X91683Y151203D01*
Y148797D01*
X91395Y148605D01*
X90290Y146951D01*
X89902Y145000D01*
X90290Y143049D01*
X91395Y141395D01*
X91683Y141203D01*
Y138797D01*
X91395Y138605D01*
X90290Y136951D01*
X89902Y135000D01*
X90290Y133049D01*
X91395Y131395D01*
X93049Y130290D01*
X95000Y129902D01*
X96951Y130290D01*
X98069Y131037D01*
X99905Y130015D01*
X99902Y130000D01*
X100290Y128049D01*
X101395Y126395D01*
X103049Y125290D01*
X105000Y124902D01*
X105015Y124905D01*
X106037Y123069D01*
X105290Y121951D01*
X104902Y120000D01*
X105290Y118049D01*
X106395Y116395D01*
X108049Y115290D01*
X110000Y114902D01*
X111951Y115290D01*
X113605Y116395D01*
X113797Y116683D01*
X116203D01*
X116395Y116395D01*
X118049Y115290D01*
X120000Y114902D01*
X121951Y115290D01*
X123605Y116395D01*
X124710Y118049D01*
X125098Y120000D01*
X124710Y121951D01*
X123605Y123605D01*
X121951Y124710D01*
X120000Y125098D01*
X118049Y124710D01*
X116395Y123605D01*
X116203Y123317D01*
X113797D01*
X113605Y123605D01*
X111951Y124710D01*
X110000Y125098D01*
X109985Y125095D01*
X108963Y126931D01*
X109710Y128049D01*
X110098Y130000D01*
X109710Y131951D01*
X108605Y133605D01*
X108317Y133797D01*
Y136203D01*
X108605Y136395D01*
X109710Y138049D01*
X110098Y140000D01*
X109710Y141951D01*
X108605Y143605D01*
X106951Y144710D01*
X105000Y145098D01*
X103049Y144710D01*
X101931Y143963D01*
X100095Y144985D01*
X100098Y145000D01*
X99710Y146951D01*
X98605Y148605D01*
X98317Y148797D01*
Y151203D01*
X98605Y151395D01*
X99710Y153049D01*
X100098Y155000D01*
X99710Y156951D01*
X98605Y158605D01*
X96951Y159710D01*
X95000Y160098D01*
D02*
G37*
G36*
Y125098D02*
X93049Y124710D01*
X91395Y123605D01*
X90290Y121951D01*
X89902Y120000D01*
X90290Y118049D01*
X91395Y116395D01*
X93049Y115290D01*
X95000Y114902D01*
X96951Y115290D01*
X98605Y116395D01*
X99710Y118049D01*
X100098Y120000D01*
X99710Y121951D01*
X98605Y123605D01*
X96951Y124710D01*
X95000Y125098D01*
D02*
G37*
G36*
X120000Y110098D02*
X118049Y109710D01*
X116395Y108605D01*
X116203Y108317D01*
X113797D01*
X113605Y108605D01*
X111951Y109710D01*
X110000Y110098D01*
X108049Y109710D01*
X106395Y108605D01*
X105290Y106951D01*
X104902Y105000D01*
X105290Y103049D01*
X106395Y101395D01*
X108049Y100290D01*
X110000Y99902D01*
X111951Y100290D01*
X113605Y101395D01*
X113797Y101683D01*
X116203D01*
X116395Y101395D01*
X118049Y100290D01*
X120000Y99902D01*
X121951Y100290D01*
X123605Y101395D01*
X124710Y103049D01*
X125098Y105000D01*
X124710Y106951D01*
X123605Y108605D01*
X121951Y109710D01*
X120000Y110098D01*
D02*
G37*
G36*
X95000D02*
X93049Y109710D01*
X91395Y108605D01*
X90290Y106951D01*
X89902Y105000D01*
X90290Y103049D01*
X91395Y101395D01*
X93049Y100290D01*
X95000Y99902D01*
X96951Y100290D01*
X98605Y101395D01*
X99710Y103049D01*
X100098Y105000D01*
X99710Y106951D01*
X98605Y108605D01*
X96951Y109710D01*
X95000Y110098D01*
D02*
G37*
G36*
X120000Y95098D02*
X118049Y94710D01*
X116395Y93605D01*
X116203Y93317D01*
X113797D01*
X113605Y93605D01*
X111951Y94710D01*
X110000Y95098D01*
X108049Y94710D01*
X106395Y93605D01*
X105290Y91951D01*
X104902Y90000D01*
X105290Y88049D01*
X106395Y86395D01*
X108049Y85290D01*
X110000Y84902D01*
X111951Y85290D01*
X113605Y86395D01*
X113797Y86683D01*
X116203D01*
X116395Y86395D01*
X118049Y85290D01*
X120000Y84902D01*
X121951Y85290D01*
X123605Y86395D01*
X124710Y88049D01*
X125098Y90000D01*
X124710Y91951D01*
X123605Y93605D01*
X121951Y94710D01*
X120000Y95098D01*
D02*
G37*
G36*
X95000D02*
X93049Y94710D01*
X91395Y93605D01*
X90290Y91951D01*
X89902Y90000D01*
X90290Y88049D01*
X91395Y86395D01*
X93049Y85290D01*
X95000Y84902D01*
X96951Y85290D01*
X98605Y86395D01*
X99710Y88049D01*
X100098Y90000D01*
X99710Y91951D01*
X98605Y93605D01*
X96951Y94710D01*
X95000Y95098D01*
D02*
G37*
%LPD*%
D25*
X285000Y385000D02*
D03*
X282000Y271000D02*
D03*
X213388Y253000D02*
D03*
X129000Y288000D02*
D03*
X302000Y312000D02*
D03*
X292000Y351000D02*
D03*
X274000Y163000D02*
D03*
X227000D02*
D03*
X129000Y336000D02*
D03*
Y312000D02*
D03*
M02*
